PathFileType	3	(X/Y/Z)	F:\ViconData\AntennenMessung\Messung1\Session1\ID23.trc
DataRate	CameraRate	NumFrames	NumMarkers	Units	OrigDataRate	OrigDataStartFrame	OrigNumFrames
120.0	120.0	6	70	mm	120.0	126	1000	
Frame#	Time	Ashort			Along			Atop			A4			Bshort			Blong			Btop			B4			Cshort			Clong			Ctop			C4			Dshort			Dlong			Dtop			D4			Eshort			Elong			Etop			E4			Fshort			Flong			Ftop			F4			Gshort			Glong			Gtop			G4			Hshort			Hlong			Htop			H4			I1			I2			I3			I4			I5			WandAshort			WandAlong			WandAtop			WandA4			WandA15			WandBshort			WandB4			WandB5			WandBtop			WandBlong			WandCshort			WandClong			WandCtop			WandC4			WandC5			Acenter			Aantenna			Bcenter			Bantenna			Ccenter			Cantenna			Dcenter			Dantenna			Ecenter			Eantenna			Fcenter			Fantenna			Gcenter			Gantenna			Hcenter			Hantenna			Icenter			Iantenna			
		X1	Y1	Z1	X2	Y2	Z2	X3	Y3	Z3	X4	Y4	Z4	X5	Y5	Z5	X6	Y6	Z6	X7	Y7	Z7	X8	Y8	Z8	X9	Y9	Z9	X10	Y10	Z10	X11	Y11	Z11	X12	Y12	Z12	X13	Y13	Z13	X14	Y14	Z14	X15	Y15	Z15	X16	Y16	Z16	X17	Y17	Z17	X18	Y18	Z18	X19	Y19	Z19	X20	Y20	Z20	X21	Y21	Z21	X22	Y22	Z22	X23	Y23	Z23	X24	Y24	Z24	X25	Y25	Z25	X26	Y26	Z26	X27	Y27	Z27	X28	Y28	Z28	X29	Y29	Z29	X30	Y30	Z30	X31	Y31	Z31	X32	Y32	Z32	X33	Y33	Z33	X34	Y34	Z34	X35	Y35	Z35	X36	Y36	Z36	X37	Y37	Z37	X38	Y38	Z38	X39	Y39	Z39	X40	Y40	Z40	X41	Y41	Z41	X42	Y42	Z42	X43	Y43	Z43	X44	Y44	Z44	X45	Y45	Z45	X46	Y46	Z46	X47	Y47	Z47	X48	Y48	Z48	X49	Y49	Z49	X50	Y50	Z50	X51	Y51	Z51	X52	Y52	Z52	X53	Y53	Z53	X54	Y54	Z54	X55	Y55	Z55	X56	Y56	Z56	X57	Y57	Z57	X58	Y58	Z58	X59	Y59	Z59	X60	Y60	Z60	X61	Y61	Z61	X62	Y62	Z62	X63	Y63	Z63	X64	Y64	Z64	X65	Y65	Z65	X66	Y66	Z66	X67	Y67	Z67	X68	Y68	Z68	X69	Y69	Z69	X70	Y70	Z70	
126	1.0416667	-1038.2012	214.59967	-1643.9893	-1109.4767	204.45682	-1599.3949	-1064.0485	173.29967	-1625.5083	-1054.1184	262.379	-1634.8451	-1352.5792	235.09508	1003.4431	-1281.3623	227.38916	1052.15	-1322.5522	194.0336	1020.8844	-1284.3517	288.00003	1052.5676	814.0033	187.69151	1209.3633	892.26862	178.65552	1178.866	844.46417	145.50537	1198.2694	861.09692	292.36673	1168.4325	1115.8153	209.76939	-1401.6744	1056.3396	194.11038	-1460.2362	1094.9697	162.19507	-1423.8029	1069.6788	239.53951	-1426.2727	-1204.7186	1686.1235	-1562.8296	-1129.1476	1688.3702	-1605.9395	-1173.165	1724.3896	-1581.8687	-1133.9829	1581.0865	-1603.9069	-1239.5969	1699.0985	1119.5782	-1309.4683	1698.9912	1072.0648	-1270.4303	1736.282	1096.9586	-1245.5863	1592.8115	1110.7622	988.89954	1664.196	1162.1155	957.30804	1700.4974	1183.8813	921.92499	1662.3036	1214.9656	939.83893	1659.4274	1159.6898	999.07385	1668.4456	-1579.4131	1058.9584	1670.1859	-1518.7	1025.001	1708.0741	-1551.1578	1059.3328	1672.1903	-1585.4429	-231.40108	1638.915	-185.83046	-228.9256	1638.3668	-270.2738	-229.74455	1675.4673	-223.71027	-196.25923	1638.5132	-221.49609	-278.76752	1639.9207	-223.91798																																														-1068.8643	210.23615	-1624.8044	-1073.9058	248.90192	-1624.0677	-1321.2173	231.70161	1024.8921	-1319.844	270.45868	1029.0157	848.03644	183.76227	1196.1017	851.65643	222.53171	1193.9049	1088.7606	202.64635	-1428.3131	1082.8793	240.96286	-1432.5856	-1171.8815	1687.0997	-1581.5616	-1170.5398	1648.1241	-1581.241	-1271.1597	1699.0499	1098.1152	-1271.9231	1660.0762	1099.3259	952.68872	1705.8053	1187.064	972.63721	1734.0138	1168.9714	1026.542	1669.2438	-1551.5648	1028.0886	1630.2766	-1551.9734	-230.29713	1638.6705	-223.48752	-230.88275	1599.6757	-223.25146
127	1.05	-1038.21	214.60396	-1643.9844	-1109.5538	204.07506	-1599.5245	-1063.7316	173.15215	-1625.7798	-1054.1333	262.32684	-1634.8258	-1352.506	235.09018	1003.3478	-1282.0988	226.71991	1052.437	-1322.5116	194.00363	1020.9006	-1284.3077	288.02289	1052.5409	814.11755	187.71841	1209.3633	892.28125	178.65489	1178.9462	844.48816	145.35722	1198.3698	860.98212	292.4949	1168.4414	1115.8135	209.76768	-1401.677	1056.3153	194.12888	-1460.2614	1094.9761	162.17757	-1423.8179	1069.686	239.58192	-1426.2799	-1204.7267	1686.1223	-1562.8407	-1129.1523	1688.3698	-1605.9344	-1173.1633	1724.3966	-1581.8743	-1133.9998	1581.0754	-1603.8849	-1239.5828	1699.079	1119.5635	-1309.4131	1698.8887	1072.0438	-1270.3993	1736.2446	1096.9467	-1245.5555	1592.6998	1110.7158	988.88385	1664.1927	1162.0922	957.27124	1700.5212	1183.9016	921.96991	1662.2998	1214.9708	939.77661	1659.4296	1159.7186	999.07312	1668.447	-1579.4147	1058.9636	1670.1877	-1518.7074	1025.015	1708.0962	-1551.1527	1059.3224	1672.188	-1585.4453	-231.40672	1638.9117	-185.8232	-228.92593	1638.3529	-270.27353	-229.73871	1675.4691	-223.71823	-196.30777	1638.4901	-221.5363	-278.75372	1639.8997	-223.89906																																														-1068.692	210.10541	-1624.9885	-1073.8795	248.75	-1624.1611	-1321.0996	231.35649	1025.2448	-1319.6366	270.06812	1029.7471	848.07867	183.78041	1196.1473	851.70135	222.54703	1193.9053	1088.7622	202.65736	-1428.3127	1082.88	240.97569	-1432.5679	-1171.8806	1687.099	-1581.5701	-1170.5403	1648.1233	-1581.2521	-1271.0955	1698.993	1098.1189	-1271.8239	1660.0192	1099.3455	952.68951	1705.7863	1187.0625	972.61957	1733.999	1168.9564	1026.5549	1669.2457	-1551.558	1028.0996	1630.2783	-1551.9645	-230.30019	1638.6624	-223.49115	-230.89505	1599.6677	-223.25058
128	1.0583333	-1038.1693	214.55287	-1643.9834	-1109.4833	204.42087	-1599.3719	-1063.7047	173.13622	-1625.7871	-1054.1276	262.33911	-1634.8049	-1352.4734	235.11755	1003.3676	-1281.5715	227.25018	1052.26	-1322.5322	193.99373	1020.8909	-1284.5734	287.93756	1052.7109	814.00745	187.78783	1209.3878	892.4223	178.6169	1178.8888	844.56311	145.2809	1198.3691	860.99658	292.2634	1168.3533	1115.8597	210.02618	-1401.8073	1056.3433	194.13574	-1460.2319	1094.953	162.15434	-1423.8094	1069.701	239.54221	-1426.2654	-1204.7268	1686.1332	-1562.827	-1129.14	1688.3607	-1605.9283	-1173.1719	1724.3833	-1581.866	-1133.9904	1581.0743	-1603.9025	-1239.5865	1699.1007	1119.571	-1309.5657	1699.1635	1072.1311	-1270.4338	1736.2761	1096.9623	-1245.5444	1592.7307	1110.7341	988.87488	1664.1844	1162.0927	957.28693	1700.5255	1183.8081	922.02637	1662.2858	1214.9596	939.82147	1659.446	1159.7061	999.07458	1668.4574	-1579.42	1058.9485	1670.1931	-1518.6985	1025.0114	1708.0918	-1551.1453	1059.3282	1672.2128	-1585.4492	-231.38936	1638.8854	-185.8299	-228.92712	1638.3616	-270.27313	-229.76961	1675.4075	-223.71642	-196.34981	1638.4652	-221.56964	-278.77264	1639.924	-223.90302																																														-1068.4932	210.24455	-1625.0137	-1073.4832	248.9156	-1624.2078	-1321.1605	231.64304	1024.9602	-1319.7489	270.39182	1029.1482	848.18268	183.79089	1196.0955	851.82593	222.55286	1193.8069	1088.691	202.77232	-1428.4777	1082.7865	241.07066	-1432.8793	-1171.8928	1687.1007	-1581.5497	-1170.5555	1648.125	-1581.219	-1271.2446	1699.129	1098.1095	-1272.0955	1660.1569	1099.313	952.7514	1705.7434	1186.926	972.67157	1733.9187	1168.7507	1026.5516	1669.2538	-1551.554	1028.097	1630.2866	-1551.964	-230.29083	1638.6516	-223.5036	-230.84384	1599.6561	-223.27783
129	1.0666667	-1038.1808	214.60834	-1644.0049	-1109.4659	204.1795	-1599.2953	-1063.7087	173.15013	-1625.7991	-1054.1056	262.34082	-1634.828	-1352.5331	235.07385	1003.3791	-1281.5422	227.27052	1052.288	-1322.5778	193.98044	1020.9293	-1284.3893	287.99976	1052.5935	814.03619	187.6703	1209.4603	892.27087	178.75163	1178.865	844.52484	145.32715	1198.4532	861.01428	292.4888	1168.4187	1115.8234	209.7601	-1401.6838	1056.3289	194.1517	-1460.2765	1094.9934	162.2468	-1423.7943	1069.6952	239.57787	-1426.2561	-1204.5736	1685.9954	-1563.1415	-1129.1482	1688.3677	-1605.9254	-1173.2153	1724.2979	-1581.7642	-1133.9999	1581.0851	-1603.9008	-1239.5865	1699.0994	1119.574	-1309.4598	1698.9487	1072.0509	-1270.4226	1736.2867	1096.9561	-1245.5548	1592.7582	1110.7502	988.84973	1664.1494	1162.0974	957.31024	1700.4784	1183.8809	921.99847	1662.2495	1214.9766	939.80847	1659.4576	1159.7396	999.07263	1668.438	-1579.4071	1058.9564	1670.1893	-1518.6976	1025.0082	1708.0999	-1551.1459	1059.3335	1672.2089	-1585.4424	-231.39568	1638.8838	-185.82744	-228.91852	1638.361	-270.26245	-229.7382	1675.4633	-223.70908	-196.28665	1638.509	-221.54111	-278.74393	1639.8864	-223.90265																																														-1068.5826	210.16063	-1624.9369	-1073.6731	248.8165	-1624.0365	-1321.2136	231.63121	1024.9564	-1319.8096	270.38489	1029.1016	848.01782	183.79642	1196.171	851.53833	222.56903	1193.8707	1088.8113	202.67348	-1428.2863	1082.9513	240.99486	-1432.5444	-1171.9697	1687.0208	-1581.6355	-1170.6674	1648.0428	-1581.5009	-1271.1327	1699.0314	1098.1183	-1271.8756	1660.0573	1099.3344	952.76135	1705.718	1187.0226	972.70935	1733.905	1168.896	1026.5525	1669.2416	-1551.5481	1028.1012	1630.2744	-1551.9515	-230.2905	1638.6505	-223.49727	-230.87556	1599.6555	-223.27292
130	1.075	-1038.1648	214.57298	-1643.9858	-1109.5588	204.00812	-1599.4718	-1064.0753	173.23225	-1625.4664	-1054.1204	262.37512	-1634.8645	-1352.5161	235.05829	1003.3966	-1281.6289	227.06688	1052.3397	-1322.4806	194.07742	1020.842	-1284.3392	288.00711	1052.5668	814.0426	187.70518	1209.3822	892.22955	178.68298	1178.8606	844.53687	145.46066	1198.3811	861.00928	292.44342	1168.448	1115.8171	209.75352	-1401.671	1056.344	194.12247	-1460.2244	1095.0406	162.2621	-1423.8116	1069.6826	239.55518	-1426.2972	-1204.6421	1686.0687	-1563.0004	-1129.1273	1688.3708	-1605.9286	-1173.178	1724.3505	-1581.834	-1133.9951	1581.0767	-1603.8822	-1239.6014	1699.135	1119.5845	-1309.4667	1698.9818	1072.0669	-1270.2928	1736.1056	1096.8981	-1245.54	1592.7307	1110.7267	988.82574	1664.1512	1162.0861	957.37921	1700.448	1183.8558	922.00781	1662.2578	1214.9612	939.80054	1659.4235	1159.7377	999.06604	1668.4504	-1579.4099	1058.9611	1670.2007	-1518.707	1025.014	1708.1033	-1551.1614	1059.3341	1672.1964	-1585.4445	-231.39563	1638.8975	-185.81506	-228.92023	1638.3591	-270.26904	-229.74255	1675.4633	-223.70848	-196.2511	1638.5374	-221.50771	-278.75247	1639.9008	-223.90086																																														-1069.0547	210.00188	-1624.726	-1074.2874	248.6414	-1623.9478	-1321.161	231.5235	1025.0452	-1319.7963	270.25638	1029.3928	848.06793	183.7789	1196.0997	851.64044	222.5463	1193.7917	1088.8073	202.65462	-1428.2632	1082.8939	240.97174	-1432.4861	-1171.912	1687.0664	-1581.6064	-1170.5886	1648.0896	-1581.3685	-1271.08	1699.0659	1098.1748	-1271.9081	1660.0978	1099.5182	952.81787	1705.7128	1187.0135	972.79266	1733.8856	1168.8945	1026.5492	1669.2535	-1551.556	1028.0889	1630.286	-1551.9517	-230.29134	1638.6572	-223.49001	-230.87279	1599.6624	-223.25853
131	1.0833333	-1038.1858	214.54076	-1643.9814	-1109.4805	204.33173	-1599.3406	-1063.9077	173.04047	-1625.5129	-1054.109	262.37534	-1634.8486	-1352.5321	235.14954	1003.4481	-1281.5671	227.23166	1052.3369	-1322.4852	194.09253	1020.8029	-1284.3348	288.02869	1052.6246	814.0307	187.68156	1209.3622	892.22571	178.64195	1178.8344	844.49438	145.32057	1198.4161	861.00092	292.55557	1168.4189	1115.8403	209.79781	-1401.6871	1056.3339	194.12506	-1460.2524	1094.9646	162.16878	-1423.8019	1069.6703	239.5797	-1426.295	-1204.6361	1686.0581	-1562.9955	-1129.145	1688.3635	-1605.9196	-1173.1813	1724.368	-1581.8458	-1133.9833	1581.0826	-1603.9193	-1239.5951	1699.1068	1119.5724	-1309.4169	1698.91	1072.043	-1270.4008	1736.2321	1096.9445	-1245.5165	1592.6552	1110.7097	988.90155	1664.1965	1162.0846	957.27716	1700.4946	1183.8337	921.96515	1662.2344	1214.917	939.80737	1659.4368	1159.7405	999.07159	1668.4468	-1579.3978	1058.9615	1670.2024	-1518.7075	1025.0156	1708.0967	-1551.1575	1059.3262	1672.1963	-1585.4375	-231.39996	1638.892	-185.8282	-228.92393	1638.3635	-270.28415	-229.75075	1675.4667	-223.71925	-196.31703	1638.486	-221.53886	-278.78082	1639.9165	-223.8933																																														-1068.7887	210.15857	-1624.8195	-1073.8723	248.81906	-1624.0972	-1321.2057	231.65431	1025.0292	-1319.8866	270.3876	1029.3875	848.02869	183.75128	1196.089	851.59369	222.517	1193.7418	1088.762	202.66594	-1428.3372	1082.8933	240.98235	-1432.6282	-1171.9055	1687.0576	-1581.606	-1170.5726	1648.0813	-1581.3553	-1271.1002	1699.0178	1098.126	-1271.8328	1660.0444	1099.3634	952.6991	1705.7491	1186.9821	972.62524	1733.9614	1168.8708	1026.5521	1669.2523	-1551.5499	1028.0935	1630.2847	-1551.9437	-230.29538	1638.6561	-223.50488	-230.87231	1599.661	-223.2778
